<?xml version="1.0" encoding="utf-8"?>
<!DOCTYPE svg
  PUBLIC '-//W3C//DTD SVG 1.0//EN'
  'http://www.w3.org/TR/2001/REC-SVG-20010904/DTD/svg10.dtd'>
<svg width="1024" height="1024" preserveAspectRatio="xMinYMin meet" viewBox="0 0 1024 1024" xmlns="http://www.w3.org/2000/svg" version="1.0" fill-rule="evenodd" xmlns:xlink="http://www.w3.org/1999/xlink">
	<title>...</title>
	<desc>...</desc>
	<clipPath id="clip">
		<rect x="0" y="0" width="1024" height="1024"/>
	</clipPath>
	<g id="group" transform="scale(1,-1) translate(0,-1024)" style="clip-path: url(#clip)">
		<g transform="">
			<g transform="">
				<g transform=" matrix(1,0,0,-1,0,1024)">
					<g transform=" matrix(1,0,0,-1,0,1024)">
						<g transform="">
							<g transform="">
								<g transform=" matrix(1,0,0,-1,0,1024)">
									<g transform=" matrix(1,0,0,-1,0,1024)">
										<g transform="">
											<g transform="">
												<g transform=" matrix(1,0,0,-1,0,1024)">
													<g transform=" matrix(1,0,0,-1,0,1024)">
														<g transform="">
															<g transform="">
																<g transform=" matrix(1,0,0,-1,0,1024)">
																	<g transform="">
																		<g transform="">
																			<g transform="">
																				<g transform="">
																					<path d="M 0 0 L 1024 0 L 1024 1024 L 0 1024 Z " style="stroke: none; stroke-linecap: butt; stroke-width: 1; fill: none; fill-rule: evenodd;"/>
																				</g>
																			</g>
																		</g>
																		<rect x="0.0" y="0.0" width="1024.0" height="1024.0" style="stroke: none; stroke-linecap: butt; stroke-width: 1; fill: rgb(94%,90%,78%); fill-rule: evenodd;"/>
																	</g>
																</g>
															</g>
															<g transform="">
																<g transform=" matrix(1,0,0,-1,0,1024)">
																	<g transform="">
																		<g transform="">
																			<g transform="">
																				<g transform="">
																					<path d="M 0 0 L 1024 0 L 1024 1024 L 0 1024 Z " style="stroke: none; stroke-linecap: butt; stroke-width: 1; fill: none; fill-rule: evenodd;"/>
																				</g>
																			</g>
																		</g>
																		<g transform=" matrix(1,0,0,1,302,302)">
																			<g transform="">
																				<g transform="">
																					<g transform="">
																						<g transform="">
																							<path d="M 296.985 0 L 420 123.015 L 420 296.985 L 296.985 420 L 123.015 420 L 0 296.985 L 0 123.015 L 123.015 0 Z " style="stroke: none; stroke-linecap: butt; stroke-width: 1; fill: rgb(94%,90%,78%); fill-rule: evenodd;"/>
																						</g>
																					</g>
																				</g>
																			</g>
																		</g>
																	</g>
																</g>
															</g>
														</g>
													</g>
												</g>
											</g>
											<g transform="">
												<g transform=" matrix(1,0,0,-1,0,1024)">
													<g transform="">
														<g transform="">
															<g transform="">
																<path d="M 0 0 L 1024 0 L 1024 1024 L 0 1024 Z " style="stroke: none; stroke-linecap: butt; stroke-width: 1; fill: none; fill-rule: evenodd;"/>
															</g>
														</g>
													</g>
												</g>
											</g>
										</g>
									</g>
								</g>
							</g>
							<g transform="">
								<g transform=" matrix(1,0,0,-1,0,1024)">
									<g transform="">
										<g transform="">
											<path d="M 0 0 L 1024 0 L 1024 1024 L 0 1024 Z " style="stroke: none; stroke-linecap: butt; stroke-width: 1; fill: none; fill-rule: evenodd;"/>
										</g>
										<g transform=" matrix(1,0,0,1,302,302)">
											<rect x="0.0" y="0.0" width="420.0" height="420.0" style="stroke: none; stroke-linecap: butt; stroke-width: 3.0; fill: none; fill-rule: evenodd;"/>
											<rect x="1.5" y="1.5" width="417.0" height="417.0" style="stroke: rgb(0%,0%,0%); stroke-linecap: butt; stroke-width: 3.0; fill: none; fill-rule: evenodd;"/>
										</g>
									</g>
								</g>
							</g>
						</g>
					</g>
				</g>
			</g>
			<g transform="">
				<g transform=" matrix(1,0,0,-1,0,1024)">
					<g transform="">
						<path d="M 0 0 L 1024 0 L 1024 1024 L 0 1024 Z " style="stroke: none; stroke-linecap: butt; stroke-width: 1; fill: none; fill-rule: evenodd;"/>
					</g>
				</g>
			</g>
		</g>
	</g>
</svg>
