<?xml version="1.0" encoding="utf-8"?>
<!DOCTYPE svg
  PUBLIC '-//W3C//DTD SVG 1.0//EN'
  'http://www.w3.org/TR/2001/REC-SVG-20010904/DTD/svg10.dtd'>
<svg fill-rule="evenodd" height="1024" preserveAspectRatio="xMinYMin meet" version="1.0" viewBox="0 0 1024 1024" width="1024" xmlns="http://www.w3.org/2000/svg" xmlns:xlink="http://www.w3.org/1999/xlink">
	<title>...</title>
	<desc>...</desc>
	<clipPath id="clip">
		<rect height="1024" width="1024" x="0" y="0"/>
	</clipPath>
	<g id="group" style="clip-path: url(#clip)" transform="scale(1,-1) translate(0,-1024)">
		<g transform="">
			<g transform="">
				<g transform=" matrix(1,0,0,-1,0,1024)">
					<g transform=" matrix(1,0,0,-1,0,1024)">
						<g transform="">
							<g transform="">
								<g transform=" matrix(1,0,0,-1,0,1024)">
									<g transform=" matrix(1,0,0,-1,0,1024)">
										<g transform="">
											<g transform="">
												<g transform=" matrix(1,0,0,-1,0,1024)">
													<g transform=" matrix(1,0,0,-1,0,1024)">
														<g transform="">
															<g transform="">
																<g transform=" matrix(1,0,0,-1,0,1024)">
																	<g transform="">
																		<g transform="">
																			<g transform="">
																				<g transform="">
																					<path d="M 0 0 L 1024 0 L 1024 1024 L 0 1024 Z " style="stroke: none; stroke-linecap: butt; stroke-width: 1; fill: none; fill-rule: evenodd;"/>
																				</g>
																			</g>
																		</g>
																		<rect height="1024.0" style="stroke: none; stroke-linecap: butt; stroke-width: 1; fill: rgb(94%,100%,94%); fill-rule: evenodd;" width="1024.0" x="0.0" y="0.0"/>
																	</g>
																</g>
															</g>
															<g transform="">
																<g transform=" matrix(1,0,0,-1,0,1024)">
																	<g transform="">
																		<g transform="">
																			<g transform="">
																				<g transform="">
																					<path d="M 0 0 L 1024 0 L 1024 1024 L 0 1024 Z " style="stroke: none; stroke-linecap: butt; stroke-width: 1; fill: none; fill-rule: evenodd;"/>
																				</g>
																			</g>
																		</g>
																		<g transform=" matrix(1,0,0,1,302,302)">
																			<rect height="420.0" style="stroke: none; stroke-linecap: butt; stroke-width: 1; fill: rgb(41%,41%,41%); fill-rule: evenodd;" width="420.0" x="0.0" y="0.0"/>
																		</g>
																	</g>
																</g>
															</g>
														</g>
													</g>
												</g>
											</g>
											<g transform="">
												<g transform=" matrix(1,0,0,-1,0,1024)">
													<g transform="">
														<g transform="">
															<g transform="">
																<path d="M 0 0 L 1024 0 L 1024 1024 L 0 1024 Z " style="stroke: none; stroke-linecap: butt; stroke-width: 1; fill: none; fill-rule: evenodd;"/>
															</g>
														</g>
													</g>
												</g>
											</g>
										</g>
									</g>
								</g>
							</g>
							<g transform="">
								<g transform=" matrix(1,0,0,-1,0,1024)">
									<g transform="">
										<g transform="">
											<path d="M 0 0 L 1024 0 L 1024 1024 L 0 1024 Z " style="stroke: none; stroke-linecap: butt; stroke-width: 1; fill: none; fill-rule: evenodd;"/>
										</g>
									</g>
								</g>
							</g>
						</g>
					</g>
				</g>
			</g>
			<g transform="">
				<g transform=" matrix(1,0,0,-1,0,1024)">
					<g transform="">
						<path d="M 0 0 L 1024 0 L 1024 1024 L 0 1024 Z " style="stroke: none; stroke-linecap: butt; stroke-width: 1; fill: none; fill-rule: evenodd;"/>
					</g>
				</g>
			</g>
		</g>
	</g>
</svg>
