<svg xmlns="http://www.w3.org/2000/svg" xmlns:xlink="http://www.w3.org/1999/xlink" width="1024" height="1024" viewBox="0 0 1024 1024">
  <defs>
    <clipPath id="clip-Zeichenfläche_1">
      <rect width="1024" height="1024"/>
    </clipPath>
  </defs>
  <g id="Zeichenfläche_1" data-name="Zeichenfläche – 1" clip-path="url(#clip-Zeichenfläche_1)">
    <g id="Polygon_1" data-name="Polygon 1" transform="translate(407 407)" fill="none">
      <path d="M137.279,0a10,10,0,0,1,7.071,2.929L197.071,55.65A10,10,0,0,1,200,62.721v74.558a10,10,0,0,1-2.929,7.071L144.35,197.071A10,10,0,0,1,137.279,200H62.721a10,10,0,0,1-7.071-2.929L2.929,144.35A10,10,0,0,1,0,137.279V62.721A10,10,0,0,1,2.929,55.65L55.65,2.929A10,10,0,0,1,62.721,0Z" stroke="none"/>
      <path d="M 62.72079467773438 5 C 61.38526916503906 5 60.12965393066406 5.520095825195312 59.18527221679688 6.464447021484375 L 6.464492797851562 59.1851806640625 C 5.520111083984375 60.12959289550781 5 61.38523864746094 5 62.72076416015625 L 5 137.2791748046875 C 5 138.6147613525391 5.520095825195312 139.8703918457031 6.464447021484375 140.8147277832031 L 59.18524169921875 193.5355224609375 C 60.12962341308594 194.4799194335938 61.38523864746094 195 62.72076416015625 195 L 137.2792053222656 195 C 138.6147613525391 195 139.870361328125 194.4799194335938 140.8147277832031 193.5355224609375 L 193.5355224609375 140.8147583007812 C 194.4799194335938 139.8703918457031 195 138.6147613525391 195 137.2792358398438 L 195 62.72079467773438 C 195 61.38526916503906 194.4798889160156 60.12962341308594 193.5355224609375 59.18524169921875 L 140.8147583007812 6.4644775390625 C 139.8703918457031 5.520095825195312 138.6147613525391 5 137.2792053222656 5 L 62.72079467773438 5 M 62.72079467773438 0 L 137.2792053222656 0 C 139.9313812255859 0 142.4749450683594 1.0535888671875 144.3502960205078 2.928939819335938 L 197.0710601806641 55.64970397949219 C 198.9464111328125 57.52508544921875 200 60.06861877441406 200 62.72079467773438 L 200 137.2792358398438 C 200 139.9314117431641 198.9464111328125 142.4749450683594 197.0710601806641 144.3502960205078 L 144.3502655029297 197.0710601806641 C 142.4749450683594 198.9464111328125 139.9313812255859 200 137.2792053222656 200 L 62.72076416015625 200 C 60.06858825683594 200 57.52505493164062 198.9464111328125 55.64970397949219 197.0710601806641 L 2.928909301757812 144.3502655029297 C 1.053558349609375 142.4749145507812 0 139.9313812255859 0 137.2791748046875 L 0 62.72076416015625 C 0 60.06858825683594 1.0535888671875 57.52505493164062 2.928939819335938 55.64967346191406 L 55.64973449707031 2.928909301757812 C 57.52511596679688 1.053558349609375 60.06864929199219 0 62.72079467773438 0 Z" stroke="none" fill="#000"/>
    </g>
  </g>
</svg>
