<svg xmlns="http://www.w3.org/2000/svg" xmlns:xlink="http://www.w3.org/1999/xlink" width="1024" height="1024" viewBox="0 0 1024 1024">
  <defs>
    <clipPath id="clip-Zeichenfläche_1">
      <rect width="1024" height="1024"/>
    </clipPath>
  </defs>
  <g id="Zeichenfläche_1" data-name="Zeichenfläche – 1" clip-path="url(#clip-Zeichenfläche_1)">
    <g id="Polygon_1" data-name="Polygon 1" transform="translate(307 307)" fill="none">
      <path d="M285.772,0a10,10,0,0,1,7.071,2.929L407.071,117.157A10,10,0,0,1,410,124.228V285.772a10,10,0,0,1-2.929,7.071L292.843,407.071A10,10,0,0,1,285.772,410H124.228a10,10,0,0,1-7.071-2.929L2.929,292.843A10,10,0,0,1,0,285.772V124.228a10,10,0,0,1,2.929-7.071L117.157,2.929A10,10,0,0,1,124.228,0Z" stroke="none"/>
      <path d="M 124.2284545898438 5 C 122.8928833007812 5 121.6372680664062 5.520111083984375 120.6929016113281 6.464508056640625 L 6.464508056640625 120.6929016113281 C 5.520111083984375 121.63720703125 5 122.892822265625 5 124.2283325195312 L 5 285.7716064453125 C 5 287.107177734375 5.520050048828125 288.36279296875 6.464508056640625 289.30712890625 L 120.6929016113281 403.5355529785156 C 121.6371765136719 404.4799499511719 122.8927917480469 405 124.2283325195312 405 L 285.7716064453125 405 C 287.107177734375 405 288.36279296875 404.4798889160156 289.3071594238281 403.5354919433594 L 403.5355529785156 289.30712890625 C 404.4799499511719 288.3628234863281 405 287.1072387695312 405 285.7716674804688 L 405 124.2283325195312 C 405 122.8927917480469 404.4798889160156 121.63720703125 403.5354919433594 120.6928405761719 L 289.3072204589844 6.464569091796875 C 288.36279296875 5.520111083984375 287.107177734375 5 285.7716064453125 5 L 124.2284545898438 5 M 124.2284545898438 0 L 285.7716064453125 0 C 288.4237670898438 0 290.9673461914062 1.053619384765625 292.8427124023438 2.928955078125 L 407.071044921875 117.1572875976562 C 408.9464416503906 119.0326538085938 410 121.5762329101562 410 124.2283325195312 L 410 285.7716674804688 C 410 288.423828125 408.9464416503906 290.9674072265625 407.071044921875 292.8427124023438 L 292.8427124023438 407.071044921875 C 290.9673461914062 408.9464416503906 288.4237670898438 410 285.7716064453125 410 L 124.2283325195312 410 C 121.576171875 410 119.0326232910156 408.9464416503906 117.1572875976562 407.071044921875 L 2.928955078125 292.8426513671875 C 1.053558349609375 290.9673461914062 0 288.4237670898438 0 285.7716064453125 L 0 124.2283325195312 C 0 121.576171875 1.053619384765625 119.0326232910156 2.928985595703125 117.1572875976562 L 117.1573181152344 2.928955078125 C 119.03271484375 1.053558349609375 121.5762634277344 0 124.2284545898438 0 Z" stroke="none" fill="#000"/>
    </g>
  </g>
</svg>
