<svg xmlns="http://www.w3.org/2000/svg" xmlns:xlink="http://www.w3.org/1999/xlink" width="1024" height="1024" viewBox="0 0 1024 1024">
  <defs>
    <clipPath id="clip-Zeichenfläche_1">
      <rect width="1024" height="1024"/>
    </clipPath>
  </defs>
  <g id="Zeichenfläche_1" data-name="Zeichenfläche – 1" clip-path="url(#clip-Zeichenfläche_1)">
    <g id="Polygon_1" data-name="Polygon 1" transform="translate(167 167)" fill="none">
      <path d="M483.762,0a10,10,0,0,1,7.071,2.929L687.071,199.167A10,10,0,0,1,690,206.238V483.762a10,10,0,0,1-2.929,7.071L490.833,687.071A10,10,0,0,1,483.762,690H206.238a10,10,0,0,1-7.071-2.929L2.929,490.833A10,10,0,0,1,0,483.761V206.238a10,10,0,0,1,2.929-7.071L199.167,2.929A10,10,0,0,1,206.239,0Z" stroke="none"/>
      <path d="M 206.2385559082031 0 L 206.2385559082031 5 C 204.9030151367188 5 203.6473693847656 5.52008056640625 202.7030029296875 6.4644775390625 L 6.46453857421875 202.7029113769531 C 5.52020263671875 203.6472778320312 5.00006103515625 204.90283203125 5.00006103515625 206.2383728027344 L 5 483.761474609375 C 5 485.0969848632812 5.52008056640625 486.3526306152344 6.4644775390625 487.2969970703125 L 202.7029113769531 683.5354614257812 C 203.6472778320312 684.4799194335938 204.9029235839844 685 206.2384643554688 685 L 483.7615356445312 685 C 485.0971069335938 685 486.3527221679688 684.4799194335938 487.2970886230469 683.5354614257812 L 683.5354614257812 487.2970886230469 C 684.4799194335938 486.3527221679688 685 485.0971069335938 685 483.7615356445312 L 685 206.2384643554688 C 685 204.9030151367188 684.4799194335938 203.6473693847656 683.5354614257812 202.7030029296875 L 487.2970886230469 6.46453857421875 C 486.3527221679688 5.52020263671875 485.0971069335938 5.00006103515625 483.7615356445312 5.00006103515625 L 206.2385559082031 5 L 206.2385559082031 0 M 206.2385559082031 0 L 483.7615356445312 6.103515625e-05 C 486.4137268066406 6.103515625e-05 488.957275390625 1.05364990234375 490.8326416015625 2.92901611328125 L 687.0709838867188 199.1674499511719 C 688.9463500976562 201.0428161621094 690 203.5862731933594 690 206.2384643554688 L 690 483.7615356445312 C 690 486.4137268066406 688.9463500976562 488.957275390625 687.0709838867188 490.8326416015625 L 490.8326416015625 687.0709838867188 C 488.957275390625 688.9463500976562 486.4137268066406 690 483.7615356445312 690 L 206.2384643554688 690 C 203.5862731933594 690 201.042724609375 688.9463500976562 199.1673583984375 687.0709838867188 L 2.92889404296875 490.8325500488281 C 1.05352783203125 488.9571838378906 0 486.4136352539062 0 483.761474609375 L 6.103515625e-05 206.2383728027344 C 6.103515625e-05 203.5862731933594 1.05364990234375 201.042724609375 2.92901611328125 199.1673583984375 L 199.1674499511719 2.92889404296875 C 201.0428161621094 1.05352783203125 203.5863647460938 0 206.2385559082031 0 Z" stroke="none" fill="#000"/>
    </g>
  </g>
</svg>
